<?xml version="1.0" encoding="utf-8"?>
<!-- Generated by IcoMoon.io -->
<!DOCTYPE svg PUBLIC "-//W3C//DTD SVG 1.1//EN" "http://www.w3.org/Graphics/SVG/1.1/DTD/svg11.dtd">
<svg version="1.1" xmlns="http://www.w3.org/2000/svg" xmlns:xlink="http://www.w3.org/1999/xlink" width="1024" height="1024" viewBox="0 0 1024 1024">
<g id="icomoon-ignore">
</g>
<path fill="#000" d="M960 0h-896c-35.375 0-64 28.625-64 64v896c0 35.375 28.625 64 64 64h896c35.375 0 64-28.625 64-64v-896c0-35.375-28.625-64-64-64zM384 512c0 0 10.124-128 128-128s128 128 128 128 3.688 128-128 128-128-128-128-128zM896 896h-768v-448h137.062c-5.312 20.562-9.062 41.75-9.062 64 0 141.376 114.624 256 256 256s256-114.624 256-256c0-22.25-3.75-43.438-9.062-64h137.062v448zM896 320h-192v-192h192v192z"></path>
</svg>
